<svg xmlns="http://www.w3.org/2000/svg" width="22.002" height="21.53" viewBox="0 0 22.002 21.53">
  <path id="address" d="M21.748,10.923a.86.86,0,0,1-1.215,0l-.679-.684v3.129a.859.859,0,1,1-1.719,0V8.505L11.6,1.926a.859.859,0,0,0-1.115,0l-6.616,6.6c0,.008,0,.016,0,.025v9.11a1.721,1.721,0,0,0,1.719,1.719H6.661a.859.859,0,1,1,0,1.719H5.586a3.442,3.442,0,0,1-3.438-3.438V10.241l-.682.681A.859.859,0,1,1,.252,9.705L9.289.687,9.324.653A2.576,2.576,0,0,1,12.761.66L12.8.694l8.955,9.014a.859.859,0,0,1,0,1.215ZM18.993,16.8a.859.859,0,0,0-.859.859,1.721,1.721,0,0,1-1.719,1.719H15.341a.859.859,0,1,0,0,1.719h1.074a3.442,3.442,0,0,0,3.438-3.438A.859.859,0,0,0,18.993,16.8Zm-2.578-3.143c0,2.3-1.371,3.781-2.695,5.211a15.949,15.949,0,0,0-1.845,2.258.86.86,0,0,1-.726.4h-.3a.86.86,0,0,1-.726-.4,15.95,15.95,0,0,0-1.845-2.258c-1.324-1.431-2.692-2.91-2.695-5.21a5.414,5.414,0,0,1,10.829,0Zm-1.719,0a3.7,3.7,0,0,0-7.391,0c0,1.626.988,2.692,2.238,4.042.49.53.992,1.072,1.458,1.68.466-.608.968-1.151,1.458-1.68,1.249-1.35,2.236-2.417,2.238-4.044ZM10.962,11.3a2.363,2.363,0,1,0,0,4.727.859.859,0,0,0,0-1.719.645.645,0,1,1,.645-.645.859.859,0,1,0,1.719,0A2.366,2.366,0,0,0,10.962,11.3Zm0,0" transform="translate(0 0)" fill="#787878"/>
</svg>
