<svg id="calendar" xmlns="http://www.w3.org/2000/svg" width="21.508" height="21.508" viewBox="0 0 21.508 21.508">
  <g id="Group_433" data-name="Group 433">
    <g id="Group_432" data-name="Group 432">
      <path id="Path_7" data-name="Path 7" d="M20.668,14.787a.84.84,0,0,0,.84-.84V5.041A3.364,3.364,0,0,0,18.147,1.68H17.055V.84a.84.84,0,1,0-1.68,0v.84H11.552V.84a.84.84,0,1,0-1.68,0v.84H6.091V.84a.84.84,0,0,0-1.68,0v.84H3.361A3.364,3.364,0,0,0,0,5.041V18.147a3.364,3.364,0,0,0,3.361,3.361H18.147a3.364,3.364,0,0,0,3.361-3.361.84.84,0,0,0-1.68,0,1.682,1.682,0,0,1-1.68,1.68H3.361a1.682,1.682,0,0,1-1.68-1.68V5.041a1.682,1.682,0,0,1,1.68-1.68h1.05V4.2a.84.84,0,0,0,1.68,0v-.84H9.872V4.2a.84.84,0,1,0,1.68,0v-.84h3.823V4.2a.84.84,0,1,0,1.68,0v-.84h1.092a1.682,1.682,0,0,1,1.68,1.68v8.906A.84.84,0,0,0,20.668,14.787Z" fill="#787878"/>
    </g>
  </g>
  <g id="Group_435" data-name="Group 435" transform="translate(4 6.5)">
    <g id="Group_434" data-name="Group 434" transform="translate(0 0)">
      <ellipse id="Ellipse_9" data-name="Ellipse 9" cx="1.177" cy="1.177" rx="1.177" ry="1.177" fill="#787878"/>
    </g>
  </g>
  <g id="Group_437" data-name="Group 437" transform="translate(12 6.5)">
    <g id="Group_436" data-name="Group 436" transform="translate(0.001 0)">
      <ellipse id="Ellipse_10" data-name="Ellipse 10" cx="1.177" cy="1.177" rx="1.177" ry="1.177" fill="#787878"/>
    </g>
  </g>
  <g id="Group_439" data-name="Group 439" transform="translate(16 6.5)">
    <g id="Group_438" data-name="Group 438" transform="translate(0 0)">
      <ellipse id="Ellipse_11" data-name="Ellipse 11" cx="1.177" cy="1.177" rx="1.177" ry="1.177" fill="#787878"/>
    </g>
  </g>
  <g id="Group_441" data-name="Group 441" transform="translate(4 11.47)">
    <g id="Group_440" data-name="Group 440" transform="translate(0 0)">
      <ellipse id="Ellipse_12" data-name="Ellipse 12" cx="1.177" cy="1.177" rx="1.177" ry="1.177" fill="#787878"/>
    </g>
  </g>
  <g id="Group_443" data-name="Group 443" transform="translate(4 16.439)">
    <g id="Group_442" data-name="Group 442" transform="translate(0 0)">
      <ellipse id="Ellipse_13" data-name="Ellipse 13" cx="1.177" cy="1.177" rx="1.177" ry="1.177" fill="#787878"/>
    </g>
  </g>
  <g id="Group_445" data-name="Group 445" transform="translate(8 6.5)">
    <g id="Group_444" data-name="Group 444" transform="translate(0 0)">
      <ellipse id="Ellipse_14" data-name="Ellipse 14" cx="1.177" cy="1.177" rx="1.177" ry="1.177" fill="#787878"/>
    </g>
  </g>
  <g id="Group_447" data-name="Group 447" transform="translate(8 11.47)">
    <g id="Group_446" data-name="Group 446" transform="translate(0 0)">
      <ellipse id="Ellipse_15" data-name="Ellipse 15" cx="1.177" cy="1.177" rx="1.177" ry="1.177" fill="#787878"/>
    </g>
  </g>
  <g id="Group_449" data-name="Group 449" transform="translate(8 16.439)">
    <g id="Group_448" data-name="Group 448" transform="translate(0 0)">
      <ellipse id="Ellipse_16" data-name="Ellipse 16" cx="1.177" cy="1.177" rx="1.177" ry="1.177" fill="#787878"/>
    </g>
  </g>
  <g id="Group_451" data-name="Group 451" transform="translate(12 11.47)">
    <g id="Group_450" data-name="Group 450" transform="translate(0.001 0)">
      <ellipse id="Ellipse_17" data-name="Ellipse 17" cx="1.177" cy="1.177" rx="1.177" ry="1.177" fill="#787878"/>
    </g>
  </g>
  <g id="Group_453" data-name="Group 453" transform="translate(16 11.47)">
    <g id="Group_452" data-name="Group 452" transform="translate(0 0)">
      <ellipse id="Ellipse_18" data-name="Ellipse 18" cx="1.177" cy="1.177" rx="1.177" ry="1.177" fill="#787878"/>
    </g>
  </g>
  <g id="Group_455" data-name="Group 455" transform="translate(12 16.439)">
    <g id="Group_454" data-name="Group 454" transform="translate(0.001 0)">
      <ellipse id="Ellipse_19" data-name="Ellipse 19" cx="1.177" cy="1.177" rx="1.177" ry="1.177" fill="#787878"/>
    </g>
  </g>
</svg>
