<svg xmlns="http://www.w3.org/2000/svg" width="21.25" height="16.172" viewBox="0 0 21.25 16.172">
  <g id="envelope" transform="translate(0 -57.75)">
    <g id="Group_458" data-name="Group 458" transform="translate(0 57.75)">
      <path id="Path_24" data-name="Path 24" d="M18.656,57.75H2.6a2.6,2.6,0,0,0-2.6,2.6V71.323a2.6,2.6,0,0,0,2.6,2.6H18.651a2.6,2.6,0,0,0,2.6-2.6V60.353A2.6,2.6,0,0,0,18.656,57.75Zm1.411,13.573a1.413,1.413,0,0,1-1.411,1.411H2.6a1.413,1.413,0,0,1-1.411-1.411V60.353A1.413,1.413,0,0,1,2.6,58.942H18.651a1.413,1.413,0,0,1,1.411,1.411v10.97Z" transform="translate(0 -57.75)" fill="#787878"/>
      <path id="Path_25" data-name="Path 25" d="M66.7,114.6l5.2-4.661a.595.595,0,0,0-.8-.884l-7.167,6.433-1.4-1.249s-.009-.009-.009-.013a.88.88,0,0,0-.1-.084l-5.69-5.092a.595.595,0,0,0-.791.888l5.259,4.7-5.237,4.9a.6.6,0,0,0-.026.84.607.607,0,0,0,.435.189.6.6,0,0,0,.4-.158l5.316-4.973,1.442,1.288a.592.592,0,0,0,.791,0l1.482-1.328L71.1,120.42a.6.6,0,0,0,.84-.022.6.6,0,0,0-.022-.84Z" transform="translate(-53.301 -106.653)" fill="#787878"/>
    </g>
  </g>
</svg>
