<svg xmlns="http://www.w3.org/2000/svg" width="17.208" height="17.208" viewBox="0 0 17.208 17.208">
  <path id="facebook_2_" data-name="facebook (2)" d="M16.536,11.831a.672.672,0,0,0,.672-.672V2.689A2.692,2.692,0,0,0,14.519,0H2.689A2.692,2.692,0,0,0,0,2.689V14.519a2.692,2.692,0,0,0,2.689,2.689H14.519a2.692,2.692,0,0,0,2.689-2.689.672.672,0,1,0-1.344,0,1.346,1.346,0,0,1-1.344,1.344H11.226V10.957h1.556a.672.672,0,0,0,.667-.592l.089-.739a.672.672,0,0,0-.667-.753H11.226V6.621a1.008,1.008,0,0,1,1.008-1.008h.84a.672.672,0,0,0,.672-.672v-.68a.672.672,0,0,0-.6-.669c-.341-.035-.7-.063-.91-.063a3.112,3.112,0,0,0-2.156.907,3.06,3.06,0,0,0-.936,2.191V8.873H7.629a.672.672,0,0,0-.672.672v.739a.672.672,0,0,0,.672.672H9.142v4.907H2.689a1.346,1.346,0,0,1-1.344-1.344V2.689A1.346,1.346,0,0,1,2.689,1.344H14.519a1.346,1.346,0,0,1,1.344,1.344v8.47A.672.672,0,0,0,16.536,11.831Zm0,0" fill="#787878"/>
</svg>
