<svg xmlns="http://www.w3.org/2000/svg" width="11.889" height="19.848" viewBox="0 0 11.889 19.848">
  <g id="iphone" transform="translate(-45.111)">
    <circle id="Ellipse_20" data-name="Ellipse 20" cx="0.675" cy="0.675" r="0.675" transform="translate(50.381 16.672)" fill="#787878"/>
    <path id="Path_18" data-name="Path 18" d="M54.949,0H47.162a2.054,2.054,0,0,0-2.051,2.051V17.8a2.054,2.054,0,0,0,2.051,2.051h7.787A2.054,2.054,0,0,0,57,17.8V2.051A2.054,2.054,0,0,0,54.949,0ZM46.434,4.014h9.243V15.032H46.434Zm.728-2.691h7.787a.729.729,0,0,1,.728.728v.639H46.434V2.051A.729.729,0,0,1,47.162,1.323Zm7.787,17.2H47.162a.729.729,0,0,1-.728-.728V16.355h9.243V17.8A.729.729,0,0,1,54.949,18.525Z" fill="#787878"/>
  </g>
</svg>
