<svg xmlns="http://www.w3.org/2000/svg" width="21" height="18.115" viewBox="0 0 21 18.115">
  <g id="telephone_2_" data-name="telephone (2)" transform="translate(0)">
    <path id="Path_8" data-name="Path 8" d="M21,51.346a3.889,3.889,0,0,0-3.77-3.99H3.77A3.889,3.889,0,0,0,0,51.346v3.706H2.431L1.89,61.946a3.384,3.384,0,0,0,.8,2.474,3.009,3.009,0,0,0,2.263,1.051H16.044a3.009,3.009,0,0,0,2.264-1.051,3.384,3.384,0,0,0,.8-2.475l-.543-6.893H21ZM3.77,48.658H17.23a2.607,2.607,0,0,1,2.532,2.487H15.447a2.134,2.134,0,0,0-1.613-.75H7.166a2.134,2.134,0,0,0-1.613.75H1.238A2.607,2.607,0,0,1,3.77,48.658ZM13.576,51.7h.258a.993.993,0,0,1,.962,1.018V53.75h-1.22Zm-6.152,0V53.75H6.2V52.716A.993.993,0,0,1,7.166,51.7h.257Zm-6.193.751H4.989a2.467,2.467,0,0,0-.015.268V53.75H1.23Zm16.653,9.606a2,2,0,0,1-.481,1.485,1.782,1.782,0,0,1-1.358.631H4.955A1.782,1.782,0,0,1,3.6,63.538a2,2,0,0,1-.481-1.485l.549-7H8.654V51.7h3.691v3.355h4.987Zm-1.857-8.3V52.716a2.466,2.466,0,0,0-.015-.268H19.77v1.3Z" transform="translate(0 -47.356)" fill="#787878"/>
    <path id="Path_9" data-name="Path 9" d="M180.992,374.644h1.23v1.23h-1.23Z" transform="translate(-173.568 -360.22)" fill="#787878"/>
    <path id="Path_10" data-name="Path 10" d="M240.992,374.644h1.23v1.23h-1.23Z" transform="translate(-231.107 -360.22)" fill="#787878"/>
    <path id="Path_11" data-name="Path 11" d="M300.992,374.644h1.23v1.23h-1.23Z" transform="translate(-288.646 -360.22)" fill="#787878"/>
    <path id="Path_12" data-name="Path 12" d="M180.992,314.644h1.23v1.23h-1.23Z" transform="translate(-173.568 -302.991)" fill="#787878"/>
    <path id="Path_13" data-name="Path 13" d="M240.992,314.644h1.23v1.23h-1.23Z" transform="translate(-231.107 -302.991)" fill="#787878"/>
    <path id="Path_14" data-name="Path 14" d="M300.992,314.644h1.23v1.23h-1.23Z" transform="translate(-288.646 -302.991)" fill="#787878"/>
    <path id="Path_15" data-name="Path 15" d="M180.992,254.644h1.23v1.23h-1.23Z" transform="translate(-173.568 -245.607)" fill="#787878"/>
    <path id="Path_16" data-name="Path 16" d="M240.992,254.644h1.23v1.23h-1.23Z" transform="translate(-231.107 -245.607)" fill="#787878"/>
    <path id="Path_17" data-name="Path 17" d="M300.992,254.644h1.23v1.23h-1.23Z" transform="translate(-288.646 -245.607)" fill="#787878"/>
  </g>
</svg>
