<svg id="wall-clock" xmlns="http://www.w3.org/2000/svg" width="21.25" height="21.25" viewBox="0 0 21.25 21.25">
  <g id="Group_457" data-name="Group 457">
    <g id="Group_456" data-name="Group 456">
      <path id="Path_19" data-name="Path 19" d="M415.722,376.891a.83.83,0,0,0-1.161.171c-.151.2-.312.4-.479.59a.83.83,0,1,0,1.244,1.1c.2-.224.389-.459.567-.7A.83.83,0,0,0,415.722,376.891Z" transform="translate(-396.696 -361.091)" fill="#787878"/>
      <path id="Path_20" data-name="Path 20" d="M463.733,286.443a.83.83,0,0,0-.988.634c-.054.246-.118.493-.193.734a.83.83,0,1,0,1.586.49c.088-.285.165-.578.229-.871A.83.83,0,0,0,463.733,286.443Z" transform="translate(-443.319 -274.537)" fill="#787878"/>
      <path id="Path_21" data-name="Path 21" d="M335.192,442.3c-.22.123-.449.238-.678.342a.83.83,0,1,0,.683,1.513c.272-.123.543-.259.8-.405a.83.83,0,0,0-.809-1.45Z" transform="translate(-320.162 -423.841)" fill="#787878"/>
      <path id="Path_22" data-name="Path 22" d="M160.09,76.83v6.3l-3.044,3.044a.83.83,0,0,0,1.174,1.174l3.287-3.287a.83.83,0,0,0,.243-.587V76.83a.83.83,0,0,0-1.66,0Z" transform="translate(-150.296 -72.846)" fill="#787878"/>
      <path id="Path_23" data-name="Path 23" d="M20.42,1.785a.83.83,0,0,0-.83.83v2.3a10.626,10.626,0,1,0-8.965,16.33h.042c.3,0,.6-.013.9-.037a.83.83,0,1,0-.139-1.654c-.251.021-.506.032-.759.032h-.042A8.965,8.965,0,1,1,18.342,6.06H16.06a.83.83,0,0,0,0,1.66h2.534a2.64,2.64,0,0,0,1.381-.388.829.829,0,0,0,.075-.048,2.656,2.656,0,0,0,1.2-2.22V2.615A.83.83,0,0,0,20.42,1.785Z" fill="#787878"/>
    </g>
  </g>
</svg>
