<svg xmlns="http://www.w3.org/2000/svg" width="22.25" height="18.38" viewBox="0 0 22.25 18.38">
  <g id="www_1_" data-name="www (1)" transform="translate(0 -42.667)">
    <g id="Group_460" data-name="Group 460" transform="translate(0 47.504)">
      <g id="Group_459" data-name="Group 459">
        <path id="Path_26" data-name="Path 26" d="M19.832,149.333H2.418A2.421,2.421,0,0,0,0,151.752v3.87a2.421,2.421,0,0,0,2.418,2.418H19.832a2.421,2.421,0,0,0,2.418-2.418v-3.87A2.421,2.421,0,0,0,19.832,149.333Zm1.451,6.288a1.453,1.453,0,0,1-1.451,1.451H2.418a1.453,1.453,0,0,1-1.451-1.451v-3.87A1.453,1.453,0,0,1,2.418,150.3H19.832a1.453,1.453,0,0,1,1.451,1.451Z" transform="translate(0 -149.333)" fill="#787878"/>
      </g>
    </g>
    <g id="Group_462" data-name="Group 462" transform="translate(10.641 42.667)">
      <g id="Group_461" data-name="Group 461">
        <path id="Path_27" data-name="Path 27" d="M235.15,42.667a.484.484,0,0,0-.484.484v4.837a.484.484,0,1,0,.967,0V43.151A.484.484,0,0,0,235.15,42.667Z" transform="translate(-234.666 -42.667)" fill="#787878"/>
      </g>
    </g>
    <g id="Group_464" data-name="Group 464" transform="translate(10.641 55.243)">
      <g id="Group_463" data-name="Group 463" transform="translate(0 0)">
        <path id="Path_28" data-name="Path 28" d="M235.15,320a.484.484,0,0,0-.484.484v4.837a.484.484,0,1,0,.967,0v-4.837A.484.484,0,0,0,235.15,320Z" transform="translate(-234.666 -320)" fill="#787878"/>
      </g>
    </g>
    <g id="Group_466" data-name="Group 466" transform="translate(6.313 42.667)">
      <g id="Group_465" data-name="Group 465">
        <path id="Path_29" data-name="Path 29" d="M148.819,47.859c-.886-3.2-2.722-5.192-4.794-5.192s-3.908,1.989-4.794,5.192a.483.483,0,1,0,.932.257c.754-2.722,2.27-4.482,3.863-4.482s3.109,1.76,3.864,4.482a.481.481,0,0,0,.465.355.5.5,0,0,0,.129-.017A.483.483,0,0,0,148.819,47.859Z" transform="translate(-139.213 -42.667)" fill="#787878"/>
      </g>
    </g>
    <g id="Group_468" data-name="Group 468" transform="translate(6.313 55.243)">
      <g id="Group_467" data-name="Group 467" transform="translate(0 0)">
        <path id="Path_30" data-name="Path 30" d="M148.482,320.025a.483.483,0,0,0-.595.338c-.754,2.722-2.27,4.482-3.863,4.482s-3.109-1.76-3.863-4.482a.483.483,0,1,0-.932.257c.886,3.2,2.722,5.192,4.794,5.192s3.908-1.989,4.794-5.192A.483.483,0,0,0,148.482,320.025Z" transform="translate(-139.213 -320.008)" fill="#787878"/>
      </g>
    </g>
    <g id="Group_470" data-name="Group 470" transform="translate(2.851 42.667)">
      <g id="Group_469" data-name="Group 469">
        <path id="Path_31" data-name="Path 31" d="M79.36,47.772a9.176,9.176,0,0,0-16.448,0,.483.483,0,1,0,.866.43,8.21,8.21,0,0,1,14.717,0,.482.482,0,0,0,.432.268.474.474,0,0,0,.215-.051A.483.483,0,0,0,79.36,47.772Z" transform="translate(-62.861 -42.667)" fill="#787878"/>
      </g>
    </g>
    <g id="Group_472" data-name="Group 472" transform="translate(2.851 55.243)">
      <g id="Group_471" data-name="Group 471">
        <path id="Path_32" data-name="Path 32" d="M79.142,320.047a.484.484,0,0,0-.648.218,8.21,8.21,0,0,1-14.716,0,.483.483,0,0,0-.866.43,9.176,9.176,0,0,0,16.448,0A.484.484,0,0,0,79.142,320.047Z" transform="translate(-62.861 -319.997)" fill="#787878"/>
      </g>
    </g>
    <g id="Group_474" data-name="Group 474" transform="translate(8.707 49.438)">
      <g id="Group_473" data-name="Group 473">
        <path id="Path_33" data-name="Path 33" d="M196.469,192.005a.48.48,0,0,0-.586.352l-.564,2.258-.442-1.326a.5.5,0,0,0-.918,0l-.442,1.326-.564-2.258a.484.484,0,0,0-.938.234l.967,3.87a.484.484,0,0,0,.451.366.452.452,0,0,0,.478-.33l.508-1.526.508,1.526a.485.485,0,0,0,.459.331h.017a.483.483,0,0,0,.451-.366l.967-3.87A.483.483,0,0,0,196.469,192.005Z" transform="translate(-191.999 -191.991)" fill="#787878"/>
      </g>
    </g>
    <g id="Group_476" data-name="Group 476" transform="translate(2.902 49.438)">
      <g id="Group_475" data-name="Group 475">
        <path id="Path_34" data-name="Path 34" d="M68.47,192.005a.482.482,0,0,0-.587.352l-.564,2.258-.442-1.326a.5.5,0,0,0-.918,0l-.442,1.326-.564-2.258a.484.484,0,0,0-.938.234l.967,3.87a.484.484,0,0,0,.451.366.45.45,0,0,0,.478-.33l.508-1.526.508,1.526a.485.485,0,0,0,.459.331H67.4a.483.483,0,0,0,.451-.366l.967-3.87A.483.483,0,0,0,68.47,192.005Z" transform="translate(-63.999 -191.991)" fill="#787878"/>
      </g>
    </g>
    <g id="Group_478" data-name="Group 478" transform="translate(14.511 49.438)">
      <g id="Group_477" data-name="Group 477">
        <path id="Path_35" data-name="Path 35" d="M324.477,192.005a.48.48,0,0,0-.586.352l-.564,2.258-.442-1.326a.5.5,0,0,0-.918,0l-.442,1.326-.564-2.258a.484.484,0,0,0-.938.234l.967,3.87a.484.484,0,0,0,.451.366.456.456,0,0,0,.478-.33l.508-1.526.508,1.526a.485.485,0,0,0,.459.331h.017a.483.483,0,0,0,.451-.366l.967-3.87A.483.483,0,0,0,324.477,192.005Z" transform="translate(-320.008 -191.991)" fill="#787878"/>
      </g>
    </g>
  </g>
</svg>
